<svg width="24" height="24" viewBox="0 0 24 24" fill="none" xmlns="http://www.w3.org/2000/svg">
<g clip-path="url(#clip0)">
<path d="M18.1262 14.2688C16.458 14.2688 15.101 15.6259 15.101 17.294C15.101 18.9622 16.458 20.3192 18.1262 20.3192C19.7946 20.3192 21.1514 18.9622 21.1514 17.294C21.1514 15.6259 19.7943 14.2688 18.1262 14.2688ZM18.1262 18.8066C17.292 18.8066 16.6136 18.1282 16.6136 17.294C16.6136 16.4598 17.292 15.7814 18.1262 15.7814C18.9604 15.7814 19.6388 16.4598 19.6388 17.294C19.6388 18.1283 18.9604 18.8066 18.1262 18.8066Z" fill="black"/>
<path d="M7.78999 14.2688C6.12185 14.2688 4.76477 15.6259 4.76477 17.294C4.76477 18.9622 6.12185 20.3192 7.78999 20.3192C9.45813 20.3192 10.8152 18.9622 10.8152 17.294C10.8152 15.6259 9.45813 14.2688 7.78999 14.2688ZM7.78999 18.8066C6.9558 18.8066 6.27738 18.1282 6.27738 17.294C6.27738 16.4598 6.9558 15.7814 7.78999 15.7814C8.62394 15.7814 9.3026 16.4598 9.3026 17.294C9.3026 18.1283 8.62418 18.8066 7.78999 18.8066Z" fill="black"/>
<path d="M20.1635 5.60972C20.0349 5.35435 19.7735 5.19324 19.4876 5.19324H15.5044V6.70585H19.0212L21.0806 10.802L22.4324 10.1223L20.1635 5.60972Z" fill="black"/>
<path d="M15.857 16.5631H10.1343V18.0757H15.857V16.5631Z" fill="black"/>
<path d="M5.52116 16.5631H2.89935C2.4816 16.5631 2.14307 16.9017 2.14307 17.3194C2.14307 17.7371 2.48164 18.0757 2.89935 18.0757H5.52121C5.93896 18.0757 6.27749 17.7371 6.27749 17.3194C6.27749 16.9016 5.93891 16.5631 5.52116 16.5631Z" fill="black"/>
<path d="M23.8414 11.9395L22.3537 10.0235C22.2108 9.83896 21.9902 9.73105 21.7565 9.73105H16.2607V4.43695C16.2607 4.0192 15.9221 3.68066 15.5044 3.68066H2.89935C2.4816 3.68066 2.14307 4.01924 2.14307 4.43695C2.14307 4.85465 2.48164 5.19323 2.89935 5.19323H14.7481V10.4873C14.7481 10.9051 15.0867 11.2436 15.5044 11.2436H21.3861L22.4876 12.6624V16.5629H20.3951C19.9774 16.5629 19.6388 16.9015 19.6388 17.3192C19.6388 17.737 19.9774 18.0755 20.3951 18.0755H23.2438C23.6616 18.0755 24.0001 17.7369 24.0002 17.3192V12.4034C24.0002 12.2354 23.9442 12.0721 23.8414 11.9395Z" fill="black"/>
<path d="M7.21008 9.75623H0.756281C0.338578 9.75623 0 10.0948 0 10.5126C0 10.9303 0.338578 11.2688 0.756281 11.2688H7.21008C7.62783 11.2688 7.96636 10.9303 7.96636 10.5126C7.96636 10.0949 7.62783 9.75623 7.21008 9.75623Z" fill="black"/>
<path d="M8.44531 6.78162H1.99151C1.57376 6.78162 1.23523 7.12019 1.23523 7.5379C1.23523 7.95565 1.57381 8.29418 1.99151 8.29418H8.44531C8.86306 8.29418 9.20159 7.9556 9.20159 7.5379C9.20164 7.12019 8.86306 6.78162 8.44531 6.78162Z" fill="black"/>
</g>
<defs>
<clipPath id="clip0">
<rect width="24" height="24" fill="white"/>
</clipPath>
</defs>
</svg>
