<svg width="24" height="24" viewBox="0 0 24 24" fill="none" xmlns="http://www.w3.org/2000/svg">
<path d="M0 0H24V24H0V0Z" fill="white"/>
<path fill-rule="evenodd" clip-rule="evenodd" d="M15.5 11C16.3284 11 17 10.3284 17 9.5C17 8.67157 16.3284 8 15.5 8C14.6716 8 14 8.67157 14 9.5C14 10.3284 14.6716 11 15.5 11ZM22 10H17.95C17.7184 11.1411 16.7095 12 15.5 12C14.2905 12 13.2816 11.1411 13.05 10H2V9H13.05C13.2816 7.85888 14.2905 7 15.5 7C16.7095 7 17.7184 7.85888 17.95 9H22V10ZM10.95 14H22V15H10.95C10.7184 16.1411 9.70948 17 8.5 17C7.29052 17 6.28164 16.1411 6.05001 15H2V14H6.05001C6.28164 12.8589 7.29052 12 8.5 12C9.70948 12 10.7184 12.8589 10.95 14ZM7 14.5C7 15.3284 7.67157 16 8.5 16C9.32843 16 10 15.3284 10 14.5C10 13.6716 9.32843 13 8.5 13C7.67157 13 7 13.6716 7 14.5Z" fill="black"/>
</svg>
