<svg width="16" height="9" viewBox="0 0 16 9" fill="none" xmlns="http://www.w3.org/2000/svg">
<path d="M13.2771 5.12918C13.0185 4.81611 13.0925 4.67683 13.2771 4.39699C13.2805 4.39379 15.4159 1.56597 15.6359 0.606965L15.6372 0.606326C15.7465 0.256842 15.6372 0 15.1085 0H13.3591C12.9138 0 12.7084 0.220424 12.5984 0.467044C12.5984 0.467044 11.7077 2.51028 10.4477 3.83474C10.041 4.21745 9.85301 4.34012 9.631 4.34012C9.52166 4.34012 9.35166 4.21745 9.35166 3.86797V0.606326C9.35166 0.187201 9.22699 0 8.85831 0H6.10754C5.8282 0 5.6622 0.195507 5.6622 0.377596C5.6622 0.774999 6.29222 0.866363 6.35755 1.98446V4.4104C6.35755 4.94198 6.25688 5.03973 6.03354 5.03973C5.43886 5.03973 3.99547 2.98819 3.14011 0.640189C2.96744 0.184645 2.79876 0.000638865 2.35008 0.000638865H0.600021C0.10067 0.000638865 0 0.221063 0 0.467683C0 0.90342 0.594687 3.06997 2.76543 5.93229C4.21215 7.88608 6.24955 8.94475 8.10295 8.94475C9.21699 8.94475 9.35299 8.70963 9.35299 8.3052C9.35299 6.43831 9.25232 6.26197 9.81034 6.26197C10.069 6.26197 10.5144 6.38464 11.5544 7.32703C12.7431 8.44449 12.9384 8.94475 13.6038 8.94475H15.3532C15.8519 8.94475 16.1046 8.70963 15.9592 8.24578C15.6265 7.27017 13.3785 5.26335 13.2771 5.12918Z" fill="black"/>
</svg>
